# File created by Blade
# Date/Time:  Tue Jan 27 20:07:51 2015
# Frame Rate: 120.000 fps
#------------------------------------------------------
:FULLY-SPECIFIED
:DEGREES
2948
root 5.140523 32.554475 -3.697662 4.521362 -39.903507 -14.241568
Spine 3.839236 23.689350 0.420370
Head 20.262800 -1.695642 6.772810
LeftShoulder -15.776161 3.164967 28.476640
LeftArm -13.328161 -33.736772 -73.149173
LeftForeArm -32.569359 -0.000000 125.487964
LeftHand 9.203939 -0.000000 -29.436808
LeftHandThumb1 -26.253704 0.000000 33.147579
RightShoulder -12.895360 -10.328071 -22.252415
RightArm 18.372718 -31.086938 91.308215
RightForeArm -15.952371 -0.000000 15.586087
RightHand 17.717101 -0.000000 2.279567
RightHandThumb1 -24.326973 -0.000000 -32.862282
LeftUpLeg 13.676097 15.476532 2.002736
LeftLeg -4.375589 -0.000000 0.000000
LeftFoot -22.148921 23.127607 -17.647624
LeftToeBase 18.813366 -0.000000 -0.000000
RightUpLeg -3.939625 -82.750782 -31.102106
RightLeg 85.016067 -0.000000 -0.000000
RightFoot 27.554358 -27.574061 26.155503
RightToeBase 15.737853 -0.000000 -0.000000
2949
root 5.120182 32.556107 -3.695009 4.450974 -39.961786 -14.299883
Spine 3.869540 23.741743 0.427790
Head 20.272087 -1.709034 6.784158
LeftShoulder -15.725424 3.122925 28.532763
LeftArm -13.357141 -33.828779 -73.080381
LeftForeArm -32.489848 -0.000000 125.458064
LeftHand 9.151094 -0.000000 -29.167543
LeftHandThumb1 -26.253704 0.000000 33.147579
RightShoulder -12.891279 -10.355288 -22.194466
RightArm 18.381338 -31.072426 91.277817
RightForeArm -15.953193 -0.000000 15.566489
RightHand 17.730305 -0.000000 2.281113
RightHandThumb1 -24.326973 -0.000000 -32.862282
LeftUpLeg 13.781185 15.518915 2.093566
LeftLeg -4.295819 -0.000000 0.000000
LeftFoot -22.245389 23.175466 -17.633397
LeftToeBase 18.980753 -0.000000 -0.000000
RightUpLeg -5.258325 -84.000322 -29.893436
RightLeg 85.535135 -0.000000 -0.000000
RightFoot 27.881763 -27.085640 25.500105
RightToeBase 16.466824 -0.000000 -0.000000
2950
root 5.103383 32.555716 -3.688481 4.344846 -40.034826 -14.310171
Spine 3.907086 23.797964 0.418761
Head 20.296022 -1.687779 6.794931
LeftShoulder -15.659432 3.119544 28.570820
LeftArm -13.371385 -33.935080 -73.001048
LeftForeArm -32.460293 0.000000 125.415740
LeftHand 9.164351 0.000000 -29.072589
LeftHandThumb1 -26.253704 0.000000 33.147579
RightShoulder -12.874004 -10.386894 -22.161614
RightArm 18.388837 -31.038435 91.268358
RightForeArm -15.954558 -0.000000 15.530368
RightHand 17.766301 0.000000 2.280345
RightHandThumb1 -24.326973 -0.000000 -32.862282
LeftUpLeg 13.900417 15.513270 2.136223
LeftLeg -4.218161 -0.000000 0.000000
LeftFoot -22.275756 23.223410 -17.591787
LeftToeBase 18.877932 -0.000000 -0.000000
RightUpLeg -7.596761 -85.011143 -27.717049
RightLeg 86.090463 -0.000000 -0.000000
RightFoot 27.777079 -26.996871 25.582323
RightToeBase 17.271725 -0.000000 -0.000000
2951
root 5.089688 32.555468 -3.686306 4.269386 -40.130673 -14.322978
Spine 3.927250 23.857957 0.401021
Head 20.291207 -1.654421 6.769138
LeftShoulder -15.616820 3.089753 28.610681
LeftArm -13.416764 -34.015812 -72.896187
LeftForeArm -32.458252 0.000000 125.370251
LeftHand 9.147196 0.000000 -29.053775
LeftHandThumb1 -26.253704 0.000000 33.147579
RightShoulder -12.853215 -10.392541 -22.130982
RightArm 18.418881 -31.068077 91.222576
RightForeArm -15.918395 -0.000000 15.469721
RightHand 17.822437 -0.000000 2.282722
RightHandThumb1 -24.326973 -0.000000 -32.862282
LeftUpLeg 13.973857 15.481551 2.153048
LeftLeg -4.125801 -0.000000 0.000000
LeftFoot -22.355059 23.325169 -17.589825
LeftToeBase 18.809857 -0.000000 -0.000000
RightUpLeg -12.081059 -85.729941 -23.380600
RightLeg 86.642792 -0.000000 -0.000000
RightFoot 27.732894 -26.858760 25.977613
RightToeBase 18.104140 -0.000000 -0.000000
2952
root 5.074878 32.555592 -3.684042 4.193401 -40.251633 -14.342068
Spine 3.947910 23.928805 0.380552
Head 20.289897 -1.586109 6.789157
LeftShoulder -15.588639 3.072771 28.658010
LeftArm -13.453230 -34.073622 -72.800992
LeftForeArm -32.466137 0.000000 125.322503
LeftHand 9.113668 -0.000000 -29.084303
LeftHandThumb1 -26.253704 0.000000 33.147579
RightShoulder -12.842113 -10.384797 -22.088762
RightArm 18.462333 -31.110537 91.168583
RightForeArm -15.955289 -0.000000 15.382017
RightHand 17.870530 0.000000 2.422235
RightHandThumb1 -24.326973 -0.000000 -32.862282
LeftUpLeg 14.069189 15.448707 2.177195
LeftLeg -4.064145 -0.000000 0.000000
LeftFoot -22.422828 23.372836 -17.619016
LeftToeBase 19.316531 -0.000000 -0.000000
RightUpLeg -18.435537 -86.301581 -17.165945
RightLeg 87.180870 -0.000000 -0.000000
RightFoot 27.872038 -26.688245 25.718667
RightToeBase 18.719429 -0.000000 -0.000000
2953
root 5.061012 32.555192 -3.682832 4.137321 -40.401647 -14.367659
Spine 3.946270 24.021665 0.364740
Head 20.304677 -1.513423 6.782991
LeftShoulder -15.571258 3.085150 28.688753
LeftArm -13.432624 -34.116983 -72.723998
LeftForeArm -32.468983 0.000000 125.262994
LeftHand 9.081450 0.000000 -29.110754
LeftHandThumb1 -26.253704 0.000000 33.147579
RightShoulder -12.818807 -10.387645 -22.051196
RightArm 18.524710 -31.166811 91.104003
RightForeArm -15.978713 -0.000000 15.265771
RightHand 17.789432 -0.000000 2.318932
RightHandThumb1 -24.326973 -0.000000 -32.862282
LeftUpLeg 14.155697 15.423410 2.196735
LeftLeg -4.024542 -0.000000 0.000000
LeftFoot -22.514634 23.502611 -17.666438
LeftToeBase 19.437776 -0.000000 -0.000000
RightUpLeg -26.688821 -86.614594 -9.058329
RightLeg 87.739971 -0.000000 -0.000000
RightFoot 28.094194 -26.628496 25.509631
RightToeBase 16.494831 -0.000000 -0.000000
2954
root 5.047927 32.554868 -3.680180 4.080592 -40.569638 -14.403464
Spine 3.950001 24.115732 0.369320
Head 20.340082 -1.433077 6.786730
LeftShoulder -15.569617 3.072444 28.699426
LeftArm -13.419953 -34.135601 -72.628905
LeftForeArm -32.444767 -0.000000 125.213531
LeftHand 9.071566 -0.000000 -29.103488
LeftHandThumb1 -26.253704 0.000000 33.147579
RightShoulder -12.790388 -10.401629 -22.020368
RightArm 18.607251 -31.224636 91.024963
RightForeArm -15.967775 -0.000000 15.160008
RightHand 17.757403 -0.000000 2.314586
RightHandThumb1 -24.326973 -0.000000 -32.862282
LeftUpLeg 14.269116 15.457238 2.226506
LeftLeg -4.002926 -0.000000 0.000000
LeftFoot -22.543032 23.734682 -17.616736
LeftToeBase 19.039882 -0.000000 -0.000000
RightUpLeg -34.424263 -86.620035 -1.451320
RightLeg 88.245160 -0.000000 -0.000000
RightFoot 27.715929 -26.788715 26.161982
RightToeBase 17.854568 -0.000000 -0.000000
2955
root 5.035846 32.554462 -3.675293 4.021708 -40.717259 -14.442204
Spine 3.958108 24.171547 0.398772
Head 20.389699 -1.353177 6.767752
LeftShoulder -15.575710 3.091799 28.672350
LeftArm -13.391875 -34.147580 -72.512200
LeftForeArm -32.459178 -0.000000 125.172224
LeftHand 9.069917 -0.000000 -29.159291
LeftHandThumb1 -26.253704 0.000000 33.147579
RightShoulder -12.759565 -10.409700 -22.009251
RightArm 18.689537 -31.304200 90.944400
RightForeArm -15.908405 -0.000000 15.047004
RightHand 17.832596 0.000000 2.377745
RightHandThumb1 -24.326973 -0.000000 -32.862282
LeftUpLeg 14.392624 15.533941 2.264925
LeftLeg -3.983049 -0.000000 0.000000
LeftFoot -22.603296 23.774347 -17.633524
LeftToeBase 19.288212 -0.000000 -0.000000
RightUpLeg -40.890758 -86.483184 4.872827
RightLeg 88.754326 -0.000000 -0.000000
RightFoot 27.635381 -26.739352 25.940751
RightToeBase 18.242669 -0.000000 -0.000000
2956
root 5.023302 32.554217 -3.668150 3.970103 -40.840998 -14.496543
Spine 3.958728 24.170550 0.458442
Head 20.475038 -1.234959 6.740175
LeftShoulder -15.603574 3.097426 28.633989
LeftArm -13.407717 -34.121274 -72.371325
LeftForeArm -32.433612 -0.000000 125.137630
LeftHand 9.079258 -0.000000 -29.174892
LeftHandThumb1 -26.253704 0.000000 33.147579
RightShoulder -12.695083 -10.387891 -22.036097
RightArm 18.704814 -31.341320 90.924762
RightForeArm -15.925718 -0.000000 14.966300
RightHand 17.844658 -0.000000 2.511408
RightHandThumb1 -24.326973 -0.000000 -32.862282
LeftUpLeg 14.540210 15.652237 2.333426
LeftLeg -4.012514 -0.000000 0.000000
LeftFoot -22.579460 23.893398 -17.535484
LeftToeBase 18.971185 -0.000000 -0.000000
RightUpLeg -45.224954 -86.220307 9.099046
RightLeg 89.183441 -0.000000 -0.000000
RightFoot 27.650894 -26.842599 26.007727
RightToeBase 18.260640 -0.000000 -0.000000
2957
root 5.013464 32.553651 -3.658978 3.922457 -40.928686 -14.536700
Spine 3.937908 24.145590 0.509712
Head 20.561324 -1.123429 6.715685
LeftShoulder -15.640679 3.104078 28.606305
LeftArm -13.403531 -34.065491 -72.276443
LeftForeArm -32.367401 0.000000 125.104029
LeftHand 9.071657 -0.000000 -29.097772
LeftHandThumb1 -26.253704 0.000000 33.147579
RightShoulder -12.654986 -10.319262 -22.081337
RightArm 18.641745 -31.373499 90.945169
RightForeArm -15.961712 -0.000000 14.908796
RightHand 17.929485 -0.000000 2.736854
RightHandThumb1 -24.326973 -0.000000 -32.862282
LeftUpLeg 14.662290 15.759628 2.379882
LeftLeg -4.030879 -0.000000 0.000000
LeftFoot -22.519463 23.907192 -17.378583
LeftToeBase 19.115053 -0.000000 -0.000000
RightUpLeg -48.194181 -85.922744 11.923632
RightLeg 89.656058 -0.000000 -0.000000
RightFoot 27.467581 -26.875069 25.946287
RightToeBase 18.101256 -0.000000 -0.000000
2958
root 5.003222 32.553557 -3.647427 3.870126 -40.985681 -14.572182
Spine 3.908864 24.086522 0.566361
Head 20.666812 -1.028493 6.689440
LeftShoulder -15.677452 3.088784 28.577852
LeftArm -13.441025 -34.000054 -72.156340
LeftForeArm -32.288900 -0.000000 125.078002
LeftHand 9.034776 -0.000000 -29.016658
LeftHandThumb1 -26.253704 0.000000 33.147579
RightShoulder -12.621589 -10.287109 -22.113234
RightArm 18.596955 -31.397073 90.942899
RightForeArm -16.059924 -0.000000 14.875089
RightHand 17.817051 -0.000000 2.749819
RightHandThumb1 -24.326973 -0.000000 -32.862282
LeftUpLeg 14.800677 15.885457 2.442095
LeftLeg -4.084201 -0.000000 0.000000
LeftFoot -22.534065 23.962418 -17.368503
LeftToeBase 18.991362 -0.000000 -0.000000
RightUpLeg -49.504717 -85.547814 13.106546
RightLeg 90.064656 -0.000000 -0.000000
RightFoot 27.282010 -27.171991 26.183069
RightToeBase 17.666642 -0.000000 -0.000000
